<mxfile host="drawio-plugin" modified="2022-10-23T18:25:04.076Z" agent="5.0 (Windows NT 6.2; Win64; x64) AppleWebKit/537.36 (KHTML, like Gecko) Chrome/98.0.4758.102 Safari/537.36" etag="iOut81L3tv4G346XXZSd" version="15.5.4" type="embed"><diagram id="rJ6xLPxrEz14ZqdGSCo2" name="Page-1"><mxGraphModel dx="934" dy="395" grid="1" gridSize="5" guides="1" tooltips="1" connect="1" arrows="1" fold="1" page="1" pageScale="1" pageWidth="850" pageHeight="1100" background="none" math="0" shadow="0"><root><mxCell id="0"/><mxCell id="1" parent="0"/><mxCell id="xm8IV2h12hr9bCTamLuV-1" value="DrawPile" style="swimlane;fontStyle=1;align=center;verticalAlign=top;childLayout=stackLayout;horizontal=1;startSize=26;horizontalStack=0;resizeParent=1;resizeParentMax=0;resizeLast=0;collapsible=1;marginBottom=0;" parent="1" vertex="1"><mxGeometry x="335" y="255" width="175" height="130" as="geometry"/></mxCell><mxCell id="xm8IV2h12hr9bCTamLuV-2" value="- letterPile: List&lt;Letter&gt;" style="text;strokeColor=none;fillColor=none;align=left;verticalAlign=top;spacingLeft=4;spacingRight=4;overflow=hidden;rotatable=0;points=[[0,0.5],[1,0.5]];portConstraint=eastwest;" parent="xm8IV2h12hr9bCTamLuV-1" vertex="1"><mxGeometry y="26" width="175" height="26" as="geometry"/></mxCell><mxCell id="xm8IV2h12hr9bCTamLuV-3" value="" style="line;strokeWidth=1;fillColor=none;align=left;verticalAlign=middle;spacingTop=-1;spacingLeft=3;spacingRight=3;rotatable=0;labelPosition=right;points=[];portConstraint=eastwest;strokeColor=inherit;" parent="xm8IV2h12hr9bCTamLuV-1" vertex="1"><mxGeometry y="52" width="175" height="8" as="geometry"/></mxCell><mxCell id="xm8IV2h12hr9bCTamLuV-4" value="+ DrawPile()&#10;- resetPile(): void&#10;+ addToPile(List&lt;Letter&gt;): void&#10;+ draw(): Letter" style="text;strokeColor=none;fillColor=none;align=left;verticalAlign=top;spacingLeft=4;spacingRight=4;overflow=hidden;rotatable=0;points=[[0,0.5],[1,0.5]];portConstraint=eastwest;" parent="xm8IV2h12hr9bCTamLuV-1" vertex="1"><mxGeometry y="60" width="175" height="70" as="geometry"/></mxCell><mxCell id="xm8IV2h12hr9bCTamLuV-5" style="edgeStyle=orthogonalEdgeStyle;rounded=0;orthogonalLoop=1;jettySize=auto;html=1;exitX=1;exitY=0.5;exitDx=0;exitDy=0;" parent="xm8IV2h12hr9bCTamLuV-1" source="xm8IV2h12hr9bCTamLuV-2" target="xm8IV2h12hr9bCTamLuV-2" edge="1"><mxGeometry relative="1" as="geometry"/></mxCell><mxCell id="xm8IV2h12hr9bCTamLuV-6" value="Hand" style="swimlane;fontStyle=1;align=center;verticalAlign=top;childLayout=stackLayout;horizontal=1;startSize=26;horizontalStack=0;resizeParent=1;resizeParentMax=0;resizeLast=0;collapsible=1;marginBottom=0;" parent="1" vertex="1"><mxGeometry x="5" y="255" width="230" height="177" as="geometry"/></mxCell><mxCell id="xm8IV2h12hr9bCTamLuV-7" value="- pile: DrawPile&#10;- letters: List&lt;Letter&gt;" style="text;strokeColor=none;fillColor=none;align=left;verticalAlign=top;spacingLeft=4;spacingRight=4;overflow=hidden;rotatable=0;points=[[0,0.5],[1,0.5]];portConstraint=eastwest;" parent="xm8IV2h12hr9bCTamLuV-6" vertex="1"><mxGeometry y="26" width="230" height="29" as="geometry"/></mxCell><mxCell id="4" value="- HAND_SIZE: int = 7 {readOnly}" style="text;strokeColor=none;fillColor=none;align=left;verticalAlign=top;spacingLeft=4;spacingRight=4;overflow=hidden;rotatable=0;points=[[0,0.5],[1,0.5]];portConstraint=eastwest;fontStyle=4" vertex="1" parent="xm8IV2h12hr9bCTamLuV-6"><mxGeometry y="55" width="230" height="20" as="geometry"/></mxCell><mxCell id="xm8IV2h12hr9bCTamLuV-8" value="" style="line;strokeWidth=1;fillColor=none;align=left;verticalAlign=middle;spacingTop=-1;spacingLeft=3;spacingRight=3;rotatable=0;labelPosition=right;points=[];portConstraint=eastwest;strokeColor=inherit;" parent="xm8IV2h12hr9bCTamLuV-6" vertex="1"><mxGeometry y="75" width="230" height="8" as="geometry"/></mxCell><mxCell id="xm8IV2h12hr9bCTamLuV-9" value="+ Hand(DrawPile)&#10;- draw(): void&#10;- fillHand(): void&#10;- containsLetters(List&lt;Letter&gt;): boolean&#10;+ useLetters(List&lt;Letter&gt;): boolean&#10;+ toString(): String" style="text;strokeColor=none;fillColor=none;align=left;verticalAlign=top;spacingLeft=4;spacingRight=4;overflow=hidden;rotatable=0;points=[[0,0.5],[1,0.5]];portConstraint=eastwest;" parent="xm8IV2h12hr9bCTamLuV-6" vertex="1"><mxGeometry y="83" width="230" height="94" as="geometry"/></mxCell><mxCell id="xm8IV2h12hr9bCTamLuV-13" value="" style="endArrow=diamondThin;endFill=0;endSize=24;html=1;rounded=0;snapToPoint=1;" parent="1" source="xm8IV2h12hr9bCTamLuV-2" target="xm8IV2h12hr9bCTamLuV-7" edge="1"><mxGeometry width="160" relative="1" as="geometry"><mxPoint x="340" y="320" as="sourcePoint"/><mxPoint x="500" y="320" as="targetPoint"/></mxGeometry></mxCell><mxCell id="xm8IV2h12hr9bCTamLuV-14" value="&lt;&lt;Enumeration&gt;&gt;&#10;Letter" style="swimlane;fontStyle=1;align=center;verticalAlign=top;childLayout=stackLayout;horizontal=1;startSize=40;horizontalStack=0;resizeParent=1;resizeParentMax=0;resizeLast=0;collapsible=1;marginBottom=0;strokeColor=default;whiteSpace=wrap;spacingBottom=2;" parent="1" vertex="1"><mxGeometry x="175" width="210" height="166" as="geometry"><mxRectangle x="370" y="220" width="140" height="40" as="alternateBounds"/></mxGeometry></mxCell><mxCell id="xm8IV2h12hr9bCTamLuV-15" value="- character: char&#10;- score: int&#10;- frequency: int" style="text;strokeColor=none;fillColor=none;align=left;verticalAlign=top;spacingLeft=4;spacingRight=4;overflow=hidden;rotatable=0;points=[[0,0.5],[1,0.5]];portConstraint=eastwest;" parent="xm8IV2h12hr9bCTamLuV-14" vertex="1"><mxGeometry y="40" width="210" height="50" as="geometry"/></mxCell><mxCell id="xm8IV2h12hr9bCTamLuV-16" value="" style="line;strokeWidth=1;fillColor=none;align=left;verticalAlign=middle;spacingTop=-1;spacingLeft=3;spacingRight=3;rotatable=0;labelPosition=right;points=[];portConstraint=eastwest;strokeColor=inherit;" parent="xm8IV2h12hr9bCTamLuV-14" vertex="1"><mxGeometry y="90" width="210" height="8" as="geometry"/></mxCell><mxCell id="xm8IV2h12hr9bCTamLuV-17" value="+ toString(): String&#10;+ getScore(): int&#10;+ getFrequency(): int&#10;" style="text;strokeColor=none;fillColor=none;align=left;verticalAlign=top;spacingLeft=4;spacingRight=4;overflow=hidden;rotatable=0;points=[[0,0.5],[1,0.5]];portConstraint=eastwest;" parent="xm8IV2h12hr9bCTamLuV-14" vertex="1"><mxGeometry y="98" width="210" height="42" as="geometry"/></mxCell><mxCell id="xm8IV2h12hr9bCTamLuV-29" value="+ wordToLetters(String): List&lt;Letter&gt;" style="text;strokeColor=none;fillColor=none;align=left;verticalAlign=top;spacingLeft=4;spacingRight=4;overflow=hidden;rotatable=0;points=[[0,0.5],[1,0.5]];portConstraint=eastwest;fontStyle=4" parent="xm8IV2h12hr9bCTamLuV-14" vertex="1"><mxGeometry y="140" width="210" height="26" as="geometry"/></mxCell><mxCell id="xm8IV2h12hr9bCTamLuV-24" value="" style="endArrow=diamondThin;endFill=0;endSize=24;html=1;rounded=0;" parent="1" target="xm8IV2h12hr9bCTamLuV-6" edge="1"><mxGeometry width="160" relative="1" as="geometry"><mxPoint x="120" y="210" as="sourcePoint"/><mxPoint x="130" y="300" as="targetPoint"/></mxGeometry></mxCell><mxCell id="xm8IV2h12hr9bCTamLuV-26" value="" style="endArrow=none;html=1;rounded=0;" parent="1" edge="1"><mxGeometry width="50" height="50" relative="1" as="geometry"><mxPoint x="120" y="210" as="sourcePoint"/><mxPoint x="420" y="210" as="targetPoint"/></mxGeometry></mxCell><mxCell id="xm8IV2h12hr9bCTamLuV-27" value="" style="endArrow=diamondThin;endFill=0;endSize=24;html=1;rounded=0;" parent="1" target="xm8IV2h12hr9bCTamLuV-1" edge="1"><mxGeometry width="160" relative="1" as="geometry"><mxPoint x="420" y="210" as="sourcePoint"/><mxPoint x="572.5" y="360" as="targetPoint"/></mxGeometry></mxCell><mxCell id="xm8IV2h12hr9bCTamLuV-28" value="" style="endArrow=none;html=1;rounded=0;" parent="1" target="xm8IV2h12hr9bCTamLuV-29" edge="1"><mxGeometry width="50" height="50" relative="1" as="geometry"><mxPoint x="280" y="210" as="sourcePoint"/><mxPoint x="405" y="220" as="targetPoint"/></mxGeometry></mxCell><mxCell id="14" value="Player" style="swimlane;fontStyle=1;align=center;verticalAlign=top;childLayout=stackLayout;horizontal=1;startSize=26;horizontalStack=0;resizeParent=1;resizeParentMax=0;resizeLast=0;collapsible=1;marginBottom=0;" vertex="1" parent="1"><mxGeometry x="7.5" y="500" width="225" height="175" as="geometry"/></mxCell><mxCell id="15" value="- hand: Hand&#10;- name: String&#10;- score: int&#10;- model: ScrabbleModel" style="text;strokeColor=none;fillColor=none;align=left;verticalAlign=top;spacingLeft=4;spacingRight=4;overflow=hidden;rotatable=0;points=[[0,0.5],[1,0.5]];portConstraint=eastwest;" vertex="1" parent="14"><mxGeometry y="26" width="225" height="64" as="geometry"/></mxCell><mxCell id="16" value="" style="line;strokeWidth=1;fillColor=none;align=left;verticalAlign=middle;spacingTop=-1;spacingLeft=3;spacingRight=3;rotatable=0;labelPosition=right;points=[];portConstraint=eastwest;" vertex="1" parent="14"><mxGeometry y="90" width="225" height="8" as="geometry"/></mxCell><mxCell id="17" value="+ Player(String, DrawPile)&#10;+ placeLetters(List&lt;Letter&gt;): boolean&#10;+ discardLetters(List&lt;Letter&gt;): void&#10;+ addPoints(List&lt;Letter&gt;): void&#10;+ toString(): String" style="text;strokeColor=none;fillColor=none;align=left;verticalAlign=top;spacingLeft=4;spacingRight=4;overflow=hidden;rotatable=0;points=[[0,0.5],[1,0.5]];portConstraint=eastwest;" vertex="1" parent="14"><mxGeometry y="98" width="225" height="77" as="geometry"/></mxCell><mxCell id="20" value="" style="endArrow=diamondThin;endFill=0;endSize=24;html=1;rounded=0;" edge="1" parent="1" source="xm8IV2h12hr9bCTamLuV-9" target="14"><mxGeometry width="160" relative="1" as="geometry"><mxPoint x="195" y="475" as="sourcePoint"/><mxPoint x="355" y="475" as="targetPoint"/></mxGeometry></mxCell><mxCell id="23" value="ScrabbleModel" style="swimlane;fontStyle=1;align=center;verticalAlign=top;childLayout=stackLayout;horizontal=1;startSize=26;horizontalStack=0;resizeParent=1;resizeParentMax=0;resizeLast=0;collapsible=1;marginBottom=0;" vertex="1" parent="1"><mxGeometry x="380" y="507" width="160" height="86" as="geometry"/></mxCell><mxCell id="24" value="- drawPile: DrawPile" style="text;strokeColor=none;fillColor=none;align=left;verticalAlign=top;spacingLeft=4;spacingRight=4;overflow=hidden;rotatable=0;points=[[0,0.5],[1,0.5]];portConstraint=eastwest;" vertex="1" parent="23"><mxGeometry y="26" width="160" height="26" as="geometry"/></mxCell><mxCell id="25" value="" style="line;strokeWidth=1;fillColor=none;align=left;verticalAlign=middle;spacingTop=-1;spacingLeft=3;spacingRight=3;rotatable=0;labelPosition=right;points=[];portConstraint=eastwest;" vertex="1" parent="23"><mxGeometry y="52" width="160" height="8" as="geometry"/></mxCell><mxCell id="26" value="+ getDrawPile(): DrawPile" style="text;strokeColor=none;fillColor=none;align=left;verticalAlign=top;spacingLeft=4;spacingRight=4;overflow=hidden;rotatable=0;points=[[0,0.5],[1,0.5]];portConstraint=eastwest;" vertex="1" parent="23"><mxGeometry y="60" width="160" height="26" as="geometry"/></mxCell><mxCell id="27" value="" style="endArrow=diamondThin;endFill=0;endSize=24;html=1;rounded=0;" edge="1" parent="1" source="24" target="15"><mxGeometry width="160" relative="1" as="geometry"><mxPoint x="175" y="465" as="sourcePoint"/><mxPoint x="340" y="470" as="targetPoint"/></mxGeometry></mxCell><mxCell id="28" value="" style="endArrow=diamondThin;endFill=0;endSize=24;html=1;rounded=0;" edge="1" parent="1" source="xm8IV2h12hr9bCTamLuV-4" target="23"><mxGeometry width="160" relative="1" as="geometry"><mxPoint x="215" y="470" as="sourcePoint"/><mxPoint x="375" y="470" as="targetPoint"/></mxGeometry></mxCell></root></mxGraphModel></diagram></mxfile>